<svg width="132" height="67" viewBox="0 0 132 67" fill="none" xmlns="http://www.w3.org/2000/svg">
<path d="M84.0796 6.23497C69.0423 -2.29366 51.8884 -1.69608 41.4554 6.62338C49.3463 7.69007 57.4146 10.3612 65.1055 14.7232L81.9413 24.2718C83.6248 25.2266 84.3828 27.1002 83.6256 28.4353C82.8683 29.7704 80.8713 30.0815 79.1878 29.1266L62.352 19.578C59.1762 17.7768 55.9325 16.3181 52.6468 15.1564C47.1841 13.2412 41.689 12.23 36.3453 12.0666C21.919 11.6446 8.90395 17.5171 2.44186 28.9108L1.06511 31.3383C-0.079306 33.3561 1.04707 36.1404 3.59156 37.5836C6.13606 39.0267 9.10383 38.5644 10.2482 36.5466L11.625 34.1192C15.8155 26.7307 23.5445 22.3317 32.5187 21.2656C29.8102 34.8685 38.1608 50.7734 53.7912 59.6384L53.9826 59.7469C79.3155 73.9744 110.97 65.8206 124.781 41.4705C128.446 35.0074 130.496 28.0492 131.035 21.036C131.132 19.707 129.174 18.6566 127.945 19.263C121.319 22.5634 112.146 22.1529 103.976 17.5197L84.0796 6.23497Z" fill="#EEEEEE"/>
</svg>
