<svg width="585" height="876" viewBox="0 0 585 876" fill="none" xmlns="http://www.w3.org/2000/svg">
<path d="M197.492 243.555C197.492 243.555 213.205 224.448 209.211 200.549C205.216 176.678 182.538 154.08 182.538 154.08C182.538 154.08 169.376 188.463 173.37 212.348C177.356 236.233 197.492 243.555 197.492 243.555Z" fill="#EEEEEE"/>
<path d="M444.856 48.5633C421.995 71.0245 426.172 117.288 426.172 117.288L427.004 117.836C405.908 133.727 386.557 154.313 369.117 177.691C365.616 182.413 362.27 187.355 358.925 192.296C362.965 183.768 366.091 172.914 365.259 160.253C363.175 128.567 336.942 93.8278 336.942 93.8278C336.942 93.8278 315.635 134.699 317.71 166.372C319.776 198.058 344.702 212.553 344.702 212.553C344.702 212.553 346.274 211.116 348.532 208.433C340.739 221.114 333.375 234.371 326.467 248.154C327.243 242.501 327.408 236.424 326.521 230.018C322.006 197.333 292.089 165.058 292.089 165.058C292.089 165.058 272.985 210.719 277.5 243.364C281.65 273.312 304.602 285.357 308.423 287.177C301.556 303.523 295.149 320.291 289.219 337.438C289.587 330.043 288.828 322.62 286.997 315.73C280.114 290.011 257.702 268.248 247.062 259.077C259.182 247.826 268.725 229.115 268.725 229.115C268.725 229.115 244.219 210.637 227.209 216.235C210.207 221.847 204.978 250.112 204.978 250.112C204.978 250.112 218.598 272.149 235.609 266.55C236.724 266.195 237.802 265.455 238.881 264.894C238.214 268.001 237.492 271.67 236.76 275.776C228.123 272.19 211.935 267.084 200.436 273.107C192.831 277.103 188.269 285.467 185.472 293.323C194.741 264.224 206.459 236.63 221.121 211.718C225.435 212.759 246.779 216.632 259.109 195.868C272.902 172.695 271.934 124.611 271.934 124.611C271.934 124.611 238.086 131.906 224.302 155.093C210.518 178.28 220.289 211.527 220.289 211.527L220.993 211.705C207.584 229.498 196.149 250.317 186.524 272.655C184.549 277.295 182.703 282.031 180.902 286.781C182.749 279.211 183.635 270.137 181.14 260.761C175.043 237.779 150.51 219.397 150.51 219.397C150.51 219.397 140.546 255.847 146.661 278.828C152.767 301.809 173.379 305.519 173.379 305.519C173.379 305.519 174.376 303.917 175.692 301.235C171.634 313.088 168.014 325.229 164.833 337.589C164.686 332.728 163.844 327.972 162.365 323.641C154.312 300.619 127.429 285.097 127.429 285.097C127.429 285.097 119.77 324.476 127.832 347.512C135.363 369.056 154.668 371.123 157.146 371.287C154.364 385.522 151.994 399.93 150.043 414.471C149.296 408.715 147.676 403.292 145.309 398.621C133.599 375.831 102.512 365.949 102.512 365.949C102.512 365.949 99.4043 410.474 111.095 433.264C122.036 454.548 143.288 451.852 146.076 451.4C144.57 468.02 143.463 484.716 142.758 501.455C142.676 503.933 142.703 506.383 142.63 508.846C141.596 500.398 138.889 492.61 134.861 486.495C120.455 464.677 86.8908 459.968 86.8908 459.968C86.8908 459.968 87.7226 507.314 102.128 529.131C116.543 550.936 140.884 541.697 140.884 541.697C140.884 541.697 141.552 538.959 142.192 534.62C142.1 550.06 142.219 565.485 142.703 580.87C143.681 607.314 145.199 633.663 147.731 659.861C150.156 686.045 153.315 712.065 157.2 737.852C157.996 742.93 158.818 747.981 159.65 753.018C151.672 739.004 144.153 724.418 137.119 709.314C121.653 675.629 108.856 639.781 99.8247 602.113C90.7635 564.527 85.5343 525.113 84.3131 485.195C83.1065 445.227 86.0133 404.931 91.4154 364.69C80.2879 402.788 74.1173 443.715 73.2347 485.277C72.2109 526.873 76.8087 568.907 86.3149 608.505C95.8303 648.144 110.126 685.306 128.024 718.293C136.961 734.873 146.736 750.4 157.264 764.734C159.12 767.212 161.021 769.607 162.913 772.03C165.464 786.251 168.242 800.349 171.506 814.283C169.828 801.875 168.268 789.432 166.826 776.957C174.622 786.566 182.739 795.572 191.533 803.251C185.531 794.964 179.735 786.348 174.156 777.423C176.892 761.269 180.352 745.411 184.513 729.954C188.563 714.577 193.281 699.612 198.635 685.155C207.084 662.484 217.345 641.437 229.192 622.48C228.406 629.639 227.455 636.756 226.788 643.928C224.026 672.595 221.968 701.404 220.618 730.297C215.7 751.964 211.514 774.042 209.814 796.585C212.574 783.473 215.81 770.661 219.375 758.055C218.461 788.236 218.04 818.471 219.183 848.625C221.057 814.612 223.58 780.735 226.761 747.023C227.346 740.507 228.077 734.033 228.717 727.532C235.778 705.919 243.602 684.884 252.153 664.514C269.754 622.967 290.106 584.181 312.902 548.746C314.584 546.131 316.375 543.654 318.057 541.067C332.435 534.155 347.307 528.707 362.554 524.313C350.947 523.583 339.32 524.353 327.801 526.613C346.801 499.412 367.035 474.212 388.358 451.195C415.588 421.808 444.701 395.692 474.874 371.273C442.234 388.231 411.022 410.817 381.868 438.575C353.202 465.585 326.793 497.626 303.204 534.018C299.227 535.592 295.251 537.098 291.339 539.055C276.329 546.553 262.075 557.089 248.972 570.372C250.252 562.57 251.385 554.727 252.775 546.966C255.499 531.184 258.424 515.458 261.541 499.826C267.382 504.809 290.315 522.233 311.366 506.752C335.708 488.808 351.338 431.457 351.338 431.457C351.338 431.457 308.843 416.825 284.493 434.715C280.096 437.945 276.15 442.4 272.866 447.841C277.396 428.34 282.368 409.075 287.774 390.08C289.922 392.667 311.869 418.03 334.949 405.834C359.254 392.996 378.614 341.722 378.614 341.722C378.614 341.722 339.995 321.095 315.69 333.934C309.331 337.314 303.694 343.184 299.365 350.934C305.623 331.163 312.486 311.834 319.931 293.008C319.264 295.376 318.962 296.813 318.962 296.813C318.962 296.813 336.613 327.706 359.885 321.369C383.138 315.032 406.145 273.038 406.145 273.038C406.145 273.038 373.614 246.211 350.36 252.548C340.433 255.258 333.295 263.703 328.331 272.504C329.318 270.15 330.26 267.782 331.265 265.455C339.396 246.938 348.228 229.134 357.718 212.129C354.885 218.138 353.514 222.791 353.514 222.791C353.514 222.791 368.193 254.546 390.771 251.631C413.33 248.729 438.074 211.869 438.074 211.869C438.074 211.869 408.961 181.948 386.383 184.877C376.713 186.136 369.309 193.295 363.989 201.069C382.325 169.862 403.284 141.57 427.151 117.89C432.288 121.23 458.064 136.3 478.567 116.166C501.436 93.7594 511.875 33.1511 511.875 33.1511C511.875 33.1511 467.744 26.1021 444.856 48.5633ZM201.386 458.518C202.529 461.597 203.882 464.294 205.326 466.84C195.637 467.935 172.657 472.137 160.592 487.85C157.548 491.806 155.381 496.309 153.828 500.962C154.358 485.153 155.363 469.413 156.615 453.713C157.639 454.411 178.151 468.085 193.982 452.043C195.454 450.565 196.825 448.786 198.132 446.911C199.01 450.976 200.043 454.904 201.386 458.518ZM195.856 392.27C186.706 393.584 176.496 396.76 169.312 404.028C165.14 408.277 161.822 414.15 159.714 421.014C161.442 405.164 163.791 389.491 166.478 373.956C166.414 374.887 166.396 375.489 166.396 375.489C166.396 375.489 181.368 390.504 196.569 383.962C196.295 386.724 196.057 389.494 195.856 392.27ZM288.25 558.696C270.617 589.192 255.069 622.056 242.4 657C239.169 665.964 236.13 675.08 233.287 684.334C234.731 671.659 236.185 658.998 237.793 646.392C239.795 631.363 241.888 616.362 244.073 601.415C257.47 584.308 272.325 569.943 288.25 558.696ZM229.192 593.285C211.834 617.151 198.003 646.194 188.589 678.544C183.952 694.215 180.346 710.526 177.822 727.244C175.463 743.792 173.8 760.614 174.184 777.395C171.158 772.605 168.233 767.759 165.345 762.845C164.394 754.085 163.398 745.339 162.557 736.552C160.008 710.642 157.92 684.636 156.296 658.56C154.796 632.486 153.508 606.425 153.133 580.35C152.897 567.843 152.811 555.331 152.877 542.819C157.923 544.872 177.493 551.305 190.938 533.813C202.977 518.127 207.693 486.385 209.211 472.876C224.174 492.654 246.843 492.777 246.843 492.777C246.843 492.777 248.342 489.67 250.188 484.565C246.309 503.787 242.789 523.167 239.631 542.682C237.291 557.875 235.152 573.15 233.141 588.426C231.852 590.082 230.444 591.56 229.192 593.285ZM256.989 452.454C257.574 442.38 256.65 431.416 252.683 420.795C244.173 398.019 223.251 380.732 210.198 371.698C221.011 356.231 227.83 333.099 227.83 333.099C227.83 333.099 199.768 322.327 183.397 333.66C176.377 338.492 172.365 346.814 169.942 354.794C170.345 352.768 170.628 350.701 171.039 348.703C174.424 332.609 178.437 316.828 183.059 301.44C181.816 306.751 181.441 310.651 181.441 310.651C181.441 310.651 196.944 330.101 213.296 321.533C221.295 317.358 228.488 307.024 233.771 297.525C232.318 312.691 232.181 329.294 235.801 342.776C244.247 374.285 270.956 381.252 275.041 382.141C269.191 402.227 263.816 422.616 258.926 443.27C258.232 446.281 257.665 449.402 256.989 452.454Z" fill="#EEEEEE"/>
<path d="M389.839 146.511C389.839 146.511 414.143 130.086 414.92 98.2899C415.707 66.4665 392.791 27.375 392.791 27.375C392.791 27.375 367.992 64.1396 367.215 95.9631C366.42 127.759 389.839 146.511 389.839 146.511ZM397.654 158.269C397.654 158.269 409.372 192.378 432.032 193.486C454.673 194.595 482.524 162.402 482.524 162.402C482.524 162.402 456.327 127.581 433.677 126.5C411.027 125.391 397.654 158.269 397.654 158.269Z" fill="#EEEEEE"/>
</svg>
